<svg width="38" height="26" viewBox="0 0 38 26" fill="none" xmlns="http://www.w3.org/2000/svg">
<path d="M31.119 14.5475C27.3114 12.4401 23.2662 13.2566 20.8627 14.1082C20.8627 14.1082 22.7815 14.2025 23.644 14.8925C23.644 14.8925 17.2615 14.95 15.594 18.3425C15.594 18.3425 15.709 18.975 14.5015 18.975C13.294 18.975 13.0065 18.285 13.0065 18.285C13.0065 18.285 10.764 15.87 8.1765 15.41C5.589 14.95 4.8415 14.8925 4.8415 14.8925C4.8415 14.8925 5.474 13.915 7.084 13.9725C7.084 13.9725 5.9915 13.11 2.829 13.2825C2.829 13.2825 7.1415 11.5 7.774 3.9675C7.774 3.9675 12.7765 7.82 13.8115 11.845C13.8115 11.845 13.9265 9.9475 13.984 9.545C14.0415 9.1425 14.329 11.5 14.559 11.9025C14.559 11.9025 15.4215 7.6475 20.194 4.0825C20.194 4.0825 22.3215 10.81 23.9315 11.5575C23.9315 11.5575 21.0565 5.3475 21.229 0.23C21.229 0.23 18.009 3.335 15.6515 7.1875C15.6515 7.1875 14.1565 6.2675 12.7765 7.1875C12.7765 7.1875 8.809 1.2075 6.6815 0C6.6815 0 7.0265 2.3575 5.704 7.4175C4.86507 10.6271 1.99008 12.2636 0 13.0312C0 13.0312 1.2765 22.4825 10.5915 24.725C15.0357 25.7951 19.113 24.9406 22.1628 23.755C22.1628 23.755 32.2115 19.78 37.444 22.3675C37.444 22.3675 37.0415 17.825 31.119 14.5475ZM24.9665 21.275C26.864 19.3775 29.9115 18.745 29.9115 18.745C29.2215 18.2275 24.5065 17.6525 24.5065 17.6525C26.289 16.675 29.739 16.9625 29.739 16.9625C29.1065 16.3875 27.324 15.065 27.324 15.065C32.384 15.41 35.374 20.47 35.374 20.47C31.119 19.55 24.9665 21.275 24.9665 21.275Z" fill="#F06B31"/>
<path d="M14.3145 19.0899C15.0211 19.0899 15.5939 18.7756 15.5939 18.3879C15.5939 18.0001 15.0211 17.6858 14.3145 17.6858C13.608 17.6858 13.0352 18.0001 13.0352 18.3879C13.0352 18.7756 13.608 19.0899 14.3145 19.0899Z" fill="#545454" stroke="#454545" stroke-width="0.5" stroke-miterlimit="10"/>
<path d="M8.89502 12.4487L11.9425 13.8287C11.9425 13.8287 11.4825 11.2987 8.89502 12.4487Z" fill="#545454" stroke="black" stroke-width="0.5" stroke-miterlimit="10"/>
<path d="M19.0952 12.3854C19.0952 12.3854 16.8567 11.1204 16.0845 13.8442L19.0952 12.3854Z" fill="#545454" stroke="black" stroke-width="0.5" stroke-miterlimit="10"/>
</svg>
