<svg width="113" height="92" viewBox="0 0 113 92" fill="none" xmlns="http://www.w3.org/2000/svg">
<path d="M95.425 55.3456C86.0714 50.1688 76.1345 52.1746 70.2302 54.2665C70.2302 54.2665 74.9437 54.4981 77.0625 56.1931C77.0625 56.1931 61.3837 56.3344 57.2875 64.6681C57.2875 64.6681 57.57 66.2219 54.6037 66.2219C51.6375 66.2219 50.9312 64.5269 50.9312 64.5269C50.9312 64.5269 45.4225 58.5944 39.0662 57.4644C32.71 56.3344 30.8737 56.1931 30.8737 56.1931C30.8737 56.1931 32.4275 53.7919 36.3825 53.9331C36.3825 53.9331 33.6987 51.8144 25.93 52.2381C25.93 52.2381 36.5237 47.8594 38.0775 29.3556C38.0775 29.3556 50.3662 38.8194 52.9087 48.7069C52.9087 48.7069 53.1912 44.0456 53.3325 43.0569C53.4737 42.0681 54.18 47.8594 54.745 48.8481C54.745 48.8481 56.8637 38.3956 68.5875 29.6381C68.5875 29.6381 73.8137 46.1644 77.7687 48.0006C77.7687 48.0006 70.7062 32.7456 71.13 20.1744C71.13 20.1744 63.22 27.8019 57.4287 37.2656C57.4287 37.2656 53.7562 35.0056 50.3662 37.2656C50.3662 37.2656 40.62 22.5756 35.3937 19.6094C35.3937 19.6094 36.2412 25.4006 32.9925 37.8306C30.9316 45.7152 23.8691 49.7352 18.9805 51.6209C18.9805 51.6209 22.1162 74.8381 44.9987 80.3469C55.9159 82.9755 65.932 80.8766 73.4239 77.964C73.4239 77.964 98.1087 68.1994 110.962 74.5556C110.962 74.5556 109.974 63.3969 95.425 55.3456ZM80.3112 71.8719C84.9725 67.2106 92.4587 65.6569 92.4587 65.6569C90.7637 64.3856 79.1812 62.9731 79.1812 62.9731C83.56 60.5719 92.035 61.2781 92.035 61.2781C90.4812 59.8656 86.1025 56.6169 86.1025 56.6169C98.5325 57.4644 105.877 69.8944 105.877 69.8944C95.425 67.6344 80.3112 71.8719 80.3112 71.8719Z" fill="#F06B31"/>
<path d="M54.1448 66.5044C55.8805 66.5044 57.2876 65.7322 57.2876 64.7797C57.2876 63.8272 55.8805 63.0551 54.1448 63.0551C52.409 63.0551 51.002 63.8272 51.002 64.7797C51.002 65.7322 52.409 66.5044 54.1448 66.5044Z" fill="#545454" stroke="#454545" stroke-width="0.5" stroke-miterlimit="10"/>
<path d="M40.832 50.19L48.3183 53.58C48.3183 53.58 47.1883 47.365 40.832 50.19Z" fill="#545454" stroke="black" stroke-width="0.5" stroke-miterlimit="10"/>
<path d="M65.8885 50.0346C65.8885 50.0346 60.3897 46.9271 58.4927 53.6181L65.8885 50.0346Z" fill="#545454" stroke="black" stroke-width="0.5" stroke-miterlimit="10"/>
</svg>
