<svg width="16" height="16" viewBox="0 0 16 16" fill="none" xmlns="http://www.w3.org/2000/svg">
<g id="mingcute:exit-fill" clip-path="url(#clip0_109_41)">
<g id="Group">
<path id="Vector" d="M8.00114 1.66667C8.26636 1.66667 8.52071 1.77203 8.70825 1.95956C8.89578 2.1471 9.00114 2.40146 9.00114 2.66667C9.00114 2.93189 8.89578 3.18624 8.70825 3.37378C8.52071 3.56131 8.26636 3.66667 8.00114 3.66667H4.66781C4.5794 3.66667 4.49462 3.70179 4.4321 3.7643C4.36959 3.82681 4.33447 3.9116 4.33447 4.00001V12C4.33447 12.0884 4.36959 12.1732 4.4321 12.2357C4.49462 12.2982 4.5794 12.3333 4.66781 12.3333H7.66781C7.93302 12.3333 8.18738 12.4387 8.37491 12.6262C8.56245 12.8138 8.66781 13.0681 8.66781 13.3333C8.66781 13.5986 8.56245 13.8529 8.37491 14.0404C8.18738 14.228 7.93302 14.3333 7.66781 14.3333H4.66781C4.04897 14.3333 3.45548 14.0875 3.01789 13.6499C2.58031 13.2123 2.33447 12.6188 2.33447 12V4.00001C2.33447 3.38117 2.58031 2.78767 3.01789 2.35009C3.45548 1.9125 4.04897 1.66667 4.66781 1.66667H8.00114ZM12.0411 5.40667L13.9271 7.29334C14.1144 7.48084 14.2196 7.735 14.2196 8C14.2196 8.26501 14.1144 8.51917 13.9271 8.70667L12.0418 10.5933C11.8542 10.7809 11.5998 10.8863 11.3345 10.8863C11.0692 10.8863 10.8147 10.7809 10.6271 10.5933C10.4395 10.4057 10.3342 10.1513 10.3342 9.886C10.3342 9.6207 10.4395 9.36627 10.6271 9.17867L10.8058 9H8.00114C7.73592 9 7.48157 8.89465 7.29403 8.70711C7.1065 8.51958 7.00114 8.26522 7.00114 8C7.00114 7.73479 7.1065 7.48043 7.29403 7.2929C7.48157 7.10536 7.73592 7 8.00114 7H10.8058L10.6271 6.82134C10.5343 6.72845 10.4607 6.61818 10.4104 6.49684C10.3602 6.37549 10.3344 6.24544 10.3344 6.1141C10.3344 5.98277 10.3603 5.85273 10.4106 5.7314C10.4609 5.61008 10.5346 5.49985 10.6275 5.40701C10.7204 5.31416 10.8306 5.24052 10.952 5.19029C11.0733 5.14006 11.2034 5.11422 11.3347 5.11425C11.466 5.11428 11.5961 5.14018 11.7174 5.19047C11.8387 5.24076 11.949 5.31445 12.0418 5.40734L12.0411 5.40667Z" fill="#545454"/>
</g>
</g>
<defs>
<clipPath id="clip0_109_41">
<rect width="16" height="16" fill="white" transform="translate(0.000976562)"/>
</clipPath>
</defs>
</svg>
