<svg width="273" height="62" viewBox="0 0 273 62" fill="none" xmlns="http://www.w3.org/2000/svg">
<path d="M76.4445 35.7362C67.0909 30.5594 57.154 32.5652 51.2497 34.6571C51.2497 34.6571 55.9633 34.8887 58.082 36.5837C58.082 36.5837 42.4033 36.725 38.307 45.0587C38.307 45.0587 38.5895 46.6125 35.6232 46.6125C32.657 46.6125 31.9507 44.9175 31.9507 44.9175C31.9507 44.9175 26.442 38.985 20.0857 37.855C13.7295 36.725 11.8932 36.5837 11.8932 36.5837C11.8932 36.5837 13.447 34.1825 17.402 34.3237C17.402 34.3237 14.7182 32.205 6.9495 32.6287C6.9495 32.6287 17.5432 28.25 19.097 9.74625C19.097 9.74625 31.3857 19.21 33.9282 29.0975C33.9282 29.0975 34.2107 24.4362 34.352 23.4475C34.4932 22.4587 35.1995 28.25 35.7645 29.2387C35.7645 29.2387 37.8833 18.7862 49.607 10.0287C49.607 10.0287 54.8333 26.555 58.7883 28.3912C58.7883 28.3912 51.7258 13.1362 52.1495 0.565C52.1495 0.565 44.2395 8.1925 38.4483 17.6562C38.4483 17.6562 34.7757 15.3962 31.3857 17.6562C31.3857 17.6562 21.6395 2.96625 16.4132 0C16.4132 0 17.2607 5.79125 14.012 18.2212C11.9512 26.1058 4.88866 30.1258 0 32.0115C0 32.0115 3.13575 55.2287 26.0182 60.7375C36.9355 63.3662 46.9515 61.2672 54.4434 58.3546C54.4434 58.3546 79.1283 48.59 91.982 54.9462C91.982 54.9462 90.9933 43.7875 76.4445 35.7362ZM61.3308 52.2625C65.992 47.6012 73.4783 46.0475 73.4783 46.0475C71.7833 44.7762 60.2008 43.3637 60.2008 43.3637C64.5795 40.9625 73.0545 41.6687 73.0545 41.6687C71.5008 40.2562 67.122 37.0075 67.122 37.0075C79.552 37.855 86.897 50.285 86.897 50.285C76.4445 48.025 61.3308 52.2625 61.3308 52.2625Z" fill="#F06B31"/>
<path d="M35.1643 46.895C36.9 46.895 38.3071 46.1228 38.3071 45.1703C38.3071 44.2178 36.9 43.4457 35.1643 43.4457C33.4286 43.4457 32.0215 44.2178 32.0215 45.1703C32.0215 46.1228 33.4286 46.895 35.1643 46.895Z" fill="currentColor" stroke="#454545" stroke-width="0.5" stroke-miterlimit="10"/>
<path d="M21.8516 30.5806L29.3378 33.9706C29.3378 33.9706 28.2078 27.7556 21.8516 30.5806Z" fill="currentColor" stroke="black" stroke-width="0.5" stroke-miterlimit="10"/>
<path d="M46.9081 30.4252C46.9081 30.4252 41.4092 27.3177 39.5122 34.0088L46.9081 30.4252Z" fill="currentColor" stroke="black" stroke-width="0.5" stroke-miterlimit="10"/>
<path d="M119.88 44.1106C118.9 44.4373 118.013 44.6006 117.22 44.6006C116.03 44.6006 115.096 44.169 114.42 43.3056C113.766 42.419 113.23 41.1706 112.81 39.5606C112.716 39.2106 112.39 37.9273 111.83 35.7106C110.733 31.3706 109.846 28.2323 109.17 26.2956C108.493 24.3356 107.501 22.854 106.195 21.8506C106.475 21.1506 106.93 20.5906 107.56 20.1706C108.213 19.7506 108.971 19.5406 109.835 19.5406C110.698 19.5406 111.41 19.879 111.97 20.5556C112.53 21.209 112.973 22.014 113.3 22.9706C113.65 23.9273 113.953 24.849 114.21 25.7356C114.466 26.6223 114.735 27.719 115.015 29.0256C115.318 30.3323 115.551 31.394 115.715 32.2106C115.901 33.004 116.181 34.3806 116.555 36.3406C116.951 38.2773 117.243 39.689 117.43 40.5756C121.35 30.3556 123.31 23.5306 123.31 20.1006C123.31 19.7973 123.298 19.5756 123.275 19.4356C123.625 19.3656 123.986 19.3306 124.36 19.3306C125.293 19.3306 126.051 19.564 126.635 20.0306C127.241 20.474 127.545 21.1156 127.545 21.9556C127.545 23.1223 126.39 26.5756 124.08 32.3156C121.793 38.0323 120.393 41.964 119.88 44.1106ZM129.684 26.9956C130.43 26.7856 131.177 26.6806 131.924 26.6806C132.694 26.6806 133.347 26.914 133.884 27.3806C134.42 27.8473 134.689 28.454 134.689 29.2006C134.689 29.924 134.56 31.1956 134.304 33.0156C134.07 34.8123 133.954 36.2123 133.954 37.2156C133.954 39.829 134.199 42.0806 134.689 43.9706C133.965 44.2506 133.184 44.3906 132.344 44.3906C131.504 44.3906 130.839 44.204 130.349 43.8306C129.859 43.434 129.614 42.874 129.614 42.1506C129.614 41.404 129.754 40.1906 130.034 38.5106C130.314 36.8306 130.454 35.4423 130.454 34.3456C130.454 31.429 130.197 28.979 129.684 26.9956ZM130.139 19.0856C130.955 18.7123 131.76 18.5256 132.554 18.5256C133.347 18.5256 133.93 18.7356 134.304 19.1556C134.7 19.5523 134.899 20.1473 134.899 20.9406C134.899 21.734 134.63 22.434 134.094 23.0406C133.58 23.6473 132.904 23.9506 132.064 23.9506C130.337 23.9506 129.474 23.0523 129.474 21.2556C129.474 20.4623 129.695 19.739 130.139 19.0856ZM154.495 42.0106C154.495 42.8273 154.273 43.469 153.83 43.9356C153.41 44.379 152.838 44.6006 152.115 44.6006C151.391 44.6006 150.738 44.4606 150.155 44.1806C149.595 43.8773 149.035 43.3873 148.475 42.7106C147.915 42.034 147.471 41.4623 147.145 40.9956C146.678 40.2723 145.826 38.8373 144.59 36.6906C142.256 38.9073 141.09 41.474 141.09 44.3906C139.923 44.3906 138.943 44.169 138.15 43.7256C137.38 43.2823 136.995 42.629 136.995 41.7656C136.995 40.9023 137.275 40.109 137.835 39.3856C138.418 38.639 139.34 37.729 140.6 36.6556C141.883 35.5823 142.735 34.8356 143.155 34.4156C142.268 33.0623 141.381 32.0006 140.495 31.2306C139.631 30.4373 138.523 29.784 137.17 29.2706C137.17 28.5006 137.415 27.8823 137.905 27.4156C138.418 26.9256 139.013 26.6806 139.69 26.6806C140.366 26.6806 140.973 26.809 141.51 27.0656C142.07 27.299 142.548 27.579 142.945 27.9056C143.365 28.209 143.82 28.664 144.31 29.2706C144.893 29.9473 145.651 30.9973 146.585 32.4206C147.145 31.7673 147.565 31.2423 147.845 30.8456C148.545 29.7956 148.895 28.4073 148.895 26.6806C149.758 26.6806 150.47 26.7156 151.03 26.7856C151.613 26.8556 152.15 27.0773 152.64 27.4506C153.153 27.8006 153.41 28.3023 153.41 28.9556C153.41 29.609 153.083 30.2973 152.43 31.0206C151.776 31.744 150.948 32.4906 149.945 33.2606C148.941 34.0073 148.3 34.5323 148.02 34.8356C149.023 36.8656 150.026 38.4756 151.03 39.6656C152.033 40.8323 153.188 41.614 154.495 42.0106ZM159.627 36.4456C159.627 38.1256 159.896 39.4556 160.432 40.4356C160.969 41.3923 161.867 41.8706 163.127 41.8706C164.387 41.8706 165.367 41.4506 166.067 40.6106C166.791 39.7473 167.152 38.709 167.152 37.4956C167.946 37.4956 168.634 37.694 169.217 38.0906C169.801 38.4873 170.092 39.0356 170.092 39.7356C170.092 41.1823 169.322 42.3956 167.782 43.3756C166.242 44.3323 164.621 44.8106 162.917 44.8106C160.257 44.8106 158.332 44.099 157.142 42.6756C155.952 41.229 155.357 39.094 155.357 36.2706C155.357 33.4473 156.151 31.079 157.737 29.1656C159.347 27.229 161.482 26.2606 164.142 26.2606C165.962 26.2606 167.421 26.6806 168.517 27.5206C169.637 28.3373 170.197 29.6206 170.197 31.3706C170.197 33.0973 169.404 34.404 167.817 35.2906C166.254 36.154 164.341 36.5856 162.077 36.5856C161.284 36.5856 160.467 36.539 159.627 36.4456ZM159.662 33.6806C160.362 33.8206 161.097 33.8906 161.867 33.8906C163.547 33.8906 164.959 33.5756 166.102 32.9456C166.242 32.3856 166.312 31.9423 166.312 31.6156C166.312 30.799 166.021 30.1806 165.437 29.7606C164.854 29.3406 164.049 29.1306 163.022 29.1306C162.019 29.1306 161.109 29.4573 160.292 30.1106C159.872 31.324 159.662 32.514 159.662 33.6806ZM189.809 30.2506L189.459 37.9506C189.459 40.074 189.785 42.1506 190.439 44.1806C189.785 44.4606 189.039 44.6006 188.199 44.6006C186.215 44.6006 185.224 43.4923 185.224 41.2756C185.224 40.2723 185.352 38.5923 185.609 36.2356C185.865 33.8556 185.994 32.3623 185.994 31.7556C185.994 30.589 185.469 30.0056 184.419 30.0056C183.649 30.0056 182.774 30.5656 181.794 31.6856C180.837 32.7823 180.009 34.019 179.309 35.3956C178.632 36.749 178.235 37.869 178.119 38.7556C178.212 40.5756 178.445 42.314 178.819 43.9706C178.072 44.2506 177.29 44.3906 176.474 44.3906C175.68 44.3906 175.027 44.204 174.514 43.8306C174.024 43.434 173.779 42.8973 173.779 42.2206C173.779 41.5206 173.884 40.284 174.094 38.5106C174.304 36.714 174.409 34.9406 174.409 33.1906C174.409 31.4173 174.14 29.3873 173.604 27.1006C174.35 26.8206 175.144 26.6806 175.984 26.6806C176.824 26.6806 177.5 26.9256 178.014 27.4156C178.55 27.9056 178.819 28.5123 178.819 29.2356C178.819 29.959 178.725 31.114 178.539 32.7006C179.425 31.044 180.58 29.5973 182.004 28.3606C183.427 27.1006 184.85 26.4706 186.274 26.4706C188.63 26.4706 189.809 27.7306 189.809 30.2506ZM205.347 27.1006C205.44 26.634 205.487 26.1556 205.487 25.6656C205.487 23.4023 204.378 22.2706 202.162 22.2706C201.158 22.2706 200.307 22.4806 199.607 22.9006C198.953 23.6706 198.627 24.5923 198.627 25.6656C198.627 26.3656 198.93 26.9723 199.537 27.4856C200.143 27.9756 200.89 28.3606 201.777 28.6406C202.687 28.9206 203.667 29.2706 204.717 29.6906C205.767 30.1106 206.735 30.5656 207.622 31.0556C208.532 31.5223 209.29 32.234 209.897 33.1906C210.503 34.124 210.807 35.2323 210.807 36.5156C210.807 38.9656 209.862 40.9606 207.972 42.5006C206.105 44.0406 203.853 44.8106 201.217 44.8106C199.093 44.8106 197.285 44.2856 195.792 43.2356C194.322 42.1623 193.587 40.669 193.587 38.7556C193.587 37.7756 193.878 36.959 194.462 36.3056C195.068 35.629 195.78 35.2906 196.597 35.2906C197.437 35.2906 198.055 35.3956 198.452 35.6056C198.265 36.3056 198.172 36.9356 198.172 37.4956C198.172 38.7556 198.522 39.759 199.222 40.5056C199.945 41.229 200.937 41.5906 202.197 41.5906C203.457 41.5906 204.472 41.264 205.242 40.6106C206.012 39.9573 206.397 39.094 206.397 38.0206C206.397 36.924 205.965 36.0256 205.102 35.3256C204.262 34.6256 203.235 34.0656 202.022 33.6456C200.808 33.2256 199.595 32.7823 198.382 32.3156C197.168 31.849 196.13 31.1606 195.267 30.2506C194.427 29.3173 194.007 28.1506 194.007 26.7506C194.007 24.5573 194.952 22.7373 196.842 21.2906C198.755 19.844 200.913 19.1206 203.317 19.1206C205.09 19.1206 206.618 19.4823 207.902 20.2056C209.208 20.9056 209.862 21.979 209.862 23.4256C209.862 24.4756 209.523 25.374 208.847 26.1206C208.17 26.844 207.318 27.2056 206.292 27.2056C206.012 27.2056 205.697 27.1706 205.347 27.1006ZM229.97 30.2506L229.62 37.9506C229.62 40.074 229.947 42.1506 230.6 44.1806C229.947 44.4606 229.2 44.6006 228.36 44.6006C226.377 44.6006 225.385 43.4923 225.385 41.2756C225.385 40.2723 225.513 38.5923 225.77 36.2356C226.027 33.8556 226.155 32.3623 226.155 31.7556C226.155 30.589 225.63 30.0056 224.58 30.0056C223.81 30.0056 222.935 30.5656 221.955 31.6856C220.998 32.7823 220.17 34.019 219.47 35.3956C218.793 36.749 218.397 37.869 218.28 38.7556C218.373 40.5756 218.607 42.314 218.98 43.9706C218.233 44.2506 217.452 44.3906 216.635 44.3906C215.842 44.3906 215.188 44.204 214.675 43.8306C214.185 43.434 213.94 42.8973 213.94 42.2206C213.94 41.5206 214.045 40.284 214.255 38.5106C214.465 36.714 214.57 34.9406 214.57 33.1906C214.57 31.4173 214.302 29.3873 213.765 27.1006C214.512 26.8206 215.305 26.6806 216.145 26.6806C216.985 26.6806 217.662 26.9256 218.175 27.4156C218.712 27.9056 218.98 28.5123 218.98 29.2356C218.98 29.959 218.887 31.114 218.7 32.7006C219.587 31.044 220.742 29.5973 222.165 28.3606C223.588 27.1006 225.012 26.4706 226.435 26.4706C228.792 26.4706 229.97 27.7306 229.97 30.2506ZM250.163 27.9056C249.533 30.589 249.218 33.284 249.218 35.9906C249.218 38.674 249.521 41.334 250.128 43.9706C249.288 44.2506 248.424 44.3906 247.538 44.3906C246.651 44.3906 246.033 44.134 245.683 43.6206C245.333 43.084 245.158 42.3256 245.158 41.3456C245.158 40.3423 245.309 38.9773 245.613 37.2506C243.956 40.7973 242.358 43.0373 240.818 43.9706C240.118 44.3906 239.394 44.6006 238.648 44.6006C236.874 44.6006 235.498 43.9473 234.518 42.6406C233.538 41.3106 233.048 39.6656 233.048 37.7056C233.048 34.719 233.876 32.1056 235.533 29.8656C237.189 27.6023 239.336 26.4706 241.973 26.4706C244.633 26.4706 247.363 26.949 250.163 27.9056ZM245.578 30.0056C244.341 29.6323 243.291 29.4456 242.428 29.4456C240.678 29.4456 239.371 29.8306 238.508 30.6006C237.714 32.5606 237.318 34.5556 237.318 36.5856C237.318 37.659 237.481 38.744 237.808 39.8406C238.158 40.9373 238.683 41.4856 239.383 41.4856C240.199 41.4856 241.249 40.284 242.533 37.8806C243.816 35.4773 244.831 32.8523 245.578 30.0056ZM257.755 40.9606C258.712 41.3106 259.82 41.4856 261.08 41.4856C262.34 41.4856 263.448 41.2406 264.405 40.7506C265.548 38.7906 266.12 36.4456 266.12 33.7156C266.12 30.9623 265.642 29.5856 264.685 29.5856C263.495 29.5856 262.153 30.7873 260.66 33.1906C259.19 35.594 258.222 38.184 257.755 40.9606ZM257.755 33.7856C260.228 28.909 262.97 26.4706 265.98 26.4706C267.567 26.4706 268.698 27.124 269.375 28.4306C270.075 29.714 270.425 31.3473 270.425 33.3306C270.425 36.1773 269.585 38.7673 267.905 41.1006C266.225 43.434 264.113 44.6006 261.57 44.6006C260.123 44.6006 258.805 44.3673 257.615 43.9006C257.662 47.0973 257.86 50.0256 258.21 52.6856C257.463 52.9656 256.693 53.1056 255.9 53.1056C255.107 53.1056 254.453 52.8373 253.94 52.3006C253.427 51.7873 253.17 50.994 253.17 49.9206C253.17 48.8473 253.31 47.0156 253.59 44.4256C253.87 41.8356 254.01 39.8056 254.01 38.3356C254.01 33.4823 253.753 29.7373 253.24 27.1006C253.987 26.8206 254.768 26.6806 255.585 26.6806C256.425 26.6806 257.067 26.9256 257.51 27.4156C257.977 27.8823 258.21 28.629 258.21 29.6556C258.21 30.659 258.058 32.0356 257.755 33.7856Z" fill="currentColor"/>
</svg>
