<svg width="16" height="16" viewBox="0 0 16 16" fill="none" xmlns="http://www.w3.org/2000/svg">
<g id="ion:person">
<path id="Vector" d="M10.3962 2.01813C9.78803 1.36156 8.93866 1 8.00116 1C7.05866 1 6.20647 1.35937 5.60116 2.01187C4.98928 2.67156 4.69116 3.56813 4.76116 4.53625C4.89991 6.44625 6.35334 8 8.00116 8C9.64897 8 11.0999 6.44656 11.2408 4.53687C11.3118 3.5775 11.0118 2.68281 10.3962 2.01813ZM13.5012 15H2.50116C2.35718 15.0019 2.21459 14.9716 2.08377 14.9115C1.95295 14.8513 1.83719 14.7627 1.74491 14.6522C1.54178 14.4094 1.45991 14.0778 1.52053 13.7425C1.78428 12.2794 2.60741 11.0503 3.90116 10.1875C5.05053 9.42156 6.50647 9 8.00116 9C9.49584 9 10.9518 9.42188 12.1012 10.1875C13.3949 11.05 14.218 12.2791 14.4818 13.7422C14.5424 14.0775 14.4605 14.4091 14.2574 14.6519C14.1652 14.7625 14.0494 14.8511 13.9186 14.9113C13.7878 14.9715 13.6452 15.0018 13.5012 15Z" fill="currentColor"/>
</g>
</svg>
