<svg width="9" height="9" viewBox="0 0 9 9" fill="none" xmlns="http://www.w3.org/2000/svg">
<path id="Vector" d="M6.43225 5.66038H6.02573L5.88165 5.52144C6.40337 4.91631 6.6901 4.14375 6.68954 3.34477C6.68954 2.68324 6.49337 2.03656 6.12584 1.48652C5.75831 0.936472 5.23593 0.507764 4.62476 0.254607C4.01358 0.00144924 3.34106 -0.0647883 2.69224 0.0642703C2.04342 0.193329 1.44744 0.511887 0.979661 0.979661C0.511887 1.44744 0.193329 2.04342 0.0642703 2.69224C-0.0647883 3.34106 0.00144924 4.01358 0.254607 4.62476C0.507764 5.23593 0.936472 5.75831 1.48652 6.12584C2.03656 6.49337 2.68324 6.68954 3.34477 6.68954C4.17324 6.68954 4.93482 6.38594 5.52144 5.88165L5.66038 6.02573V6.43225L8.23328 9L9 8.23328L6.43225 5.66038ZM3.34477 5.66038C2.06347 5.66038 1.02916 4.62607 1.02916 3.34477C1.02916 2.06347 2.06347 1.02916 3.34477 1.02916C4.62607 1.02916 5.66038 2.06347 5.66038 3.34477C5.66038 4.62607 4.62607 5.66038 3.34477 5.66038Z" fill="#545454"/>
</svg>
