<svg width="17" height="17" viewBox="0 0 17 17" fill="none" xmlns="http://www.w3.org/2000/svg">
<g id="eva:sun-fill">
<g id="evaSunFill0">
<g id="evaSunFill1">
<path id="evaSunFill2" d="M8.50081 4.24999C8.68868 4.24999 8.86884 4.17536 9.00168 4.04252C9.13452 3.90969 9.20915 3.72952 9.20915 3.54166V2.12499C9.20915 1.93713 9.13452 1.75696 9.00168 1.62412C8.86884 1.49128 8.68868 1.41666 8.50081 1.41666C8.31295 1.41666 8.13279 1.49128 7.99995 1.62412C7.86711 1.75696 7.79248 1.93713 7.79248 2.12499V3.54166C7.79248 3.72952 7.86711 3.90969 7.99995 4.04252C8.13279 4.17536 8.31295 4.24999 8.50081 4.24999ZM14.8758 7.79166H13.4591C13.2713 7.79166 13.0911 7.86628 12.9583 7.99912C12.8254 8.13196 12.7508 8.31213 12.7508 8.49999C12.7508 8.68785 12.8254 8.86802 12.9583 9.00086C13.0911 9.1337 13.2713 9.20832 13.4591 9.20832H14.8758C15.0637 9.20832 15.2438 9.1337 15.3767 9.00086C15.5095 8.86802 15.5841 8.68785 15.5841 8.49999C15.5841 8.31213 15.5095 8.13196 15.3767 7.99912C15.2438 7.86628 15.0637 7.79166 14.8758 7.79166ZM4.25081 8.49999C4.25081 8.31213 4.17619 8.13196 4.04335 7.99912C3.91051 7.86628 3.73034 7.79166 3.54248 7.79166H2.12581C1.93795 7.79166 1.75778 7.86628 1.62495 7.99912C1.49211 8.13196 1.41748 8.31213 1.41748 8.49999C1.41748 8.68785 1.49211 8.86802 1.62495 9.00086C1.75778 9.1337 1.93795 9.20832 2.12581 9.20832H3.54248C3.73034 9.20832 3.91051 9.1337 4.04335 9.00086C4.17619 8.86802 4.25081 8.68785 4.25081 8.49999ZM4.40665 3.54166C4.26857 3.41109 4.08428 3.34073 3.89432 3.34604C3.70436 3.35135 3.52429 3.43191 3.39373 3.56999C3.26317 3.70807 3.1928 3.89236 3.19812 4.08232C3.20343 4.27227 3.28399 4.45234 3.42206 4.58291L4.44206 5.56749C4.51051 5.63358 4.59158 5.68521 4.68042 5.71929C4.76926 5.75336 4.86406 5.76919 4.95915 5.76582C5.05456 5.76546 5.14892 5.74582 5.23656 5.70809C5.3242 5.67035 5.40331 5.6153 5.46915 5.54624C5.60108 5.41352 5.67513 5.234 5.67513 5.04686C5.67513 4.85973 5.60108 4.68021 5.46915 4.54749L4.40665 3.54166ZM12.0425 5.76582C12.2249 5.7651 12.3999 5.69406 12.5312 5.56749L13.5512 4.58291C13.6757 4.45289 13.7459 4.28039 13.7478 4.10044C13.7496 3.92049 13.6829 3.74657 13.5612 3.61403C13.4395 3.48148 13.2719 3.40023 13.0924 3.38679C12.9129 3.37335 12.7351 3.42872 12.595 3.54166L11.575 4.54749C11.4431 4.68021 11.369 4.85973 11.369 5.04686C11.369 5.234 11.4431 5.41352 11.575 5.54624C11.6976 5.67567 11.8646 5.75408 12.0425 5.76582ZM8.50081 12.75C8.31295 12.75 8.13279 12.8246 7.99995 12.9575C7.86711 13.0903 7.79248 13.2705 7.79248 13.4583V14.875C7.79248 15.0629 7.86711 15.243 7.99995 15.3759C8.13279 15.5087 8.31295 15.5833 8.50081 15.5833C8.68868 15.5833 8.86884 15.5087 9.00168 15.3759C9.13452 15.243 9.20915 15.0629 9.20915 14.875V13.4583C9.20915 13.2705 9.13452 13.0903 9.00168 12.9575C8.86884 12.8246 8.68868 12.75 8.50081 12.75ZM12.5596 11.4325C12.4243 11.3019 12.2427 11.2304 12.0548 11.2338C11.8668 11.2371 11.6878 11.3149 11.5573 11.4502C11.4267 11.5855 11.3552 11.767 11.3585 11.955C11.3619 12.143 11.4397 12.3219 11.575 12.4525L12.595 13.4583C12.7263 13.5849 12.9014 13.6559 13.0837 13.6567C13.1786 13.6572 13.2727 13.6387 13.3603 13.6022C13.4479 13.5657 13.5273 13.5119 13.5937 13.4442C13.6601 13.3783 13.7128 13.3 13.7488 13.2136C13.7847 13.1273 13.8033 13.0347 13.8033 12.9412C13.8033 12.8477 13.7847 12.7551 13.7488 12.6688C13.7128 12.5825 13.6601 12.5042 13.5937 12.4383L12.5596 11.4325ZM4.44206 11.4325L3.42206 12.4171C3.35567 12.4829 3.30298 12.5613 3.26702 12.6476C3.23105 12.7339 3.21254 12.8265 3.21254 12.92C3.21254 13.0135 3.23105 13.1061 3.26702 13.1924C3.30298 13.2787 3.35567 13.3571 3.42206 13.4229C3.4885 13.4907 3.56788 13.5444 3.65549 13.5809C3.7431 13.6174 3.83715 13.636 3.93206 13.6354C4.10668 13.6369 4.27569 13.5738 4.40665 13.4583L5.42665 12.4737C5.56191 12.3432 5.63976 12.1642 5.64308 11.9763C5.6464 11.7883 5.57492 11.6067 5.44436 11.4714C5.31379 11.3362 5.13484 11.2583 4.94688 11.255C4.75891 11.2517 4.57732 11.3232 4.44206 11.4537V11.4325ZM8.50081 5.66666C7.94043 5.66666 7.39264 5.83283 6.9267 6.14416C6.46076 6.45549 6.0976 6.898 5.88316 7.41572C5.66871 7.93344 5.6126 8.50313 5.72192 9.05275C5.83125 9.60236 6.1011 10.1072 6.49734 10.5035C6.89359 10.8997 7.39845 11.1696 7.94806 11.2789C8.49767 11.3882 9.06736 11.3321 9.58508 11.1176C10.1028 10.9032 10.5453 10.54 10.8566 10.0741C11.168 9.60817 11.3341 9.06037 11.3341 8.49999C11.3341 7.74854 11.0356 7.02787 10.5043 6.49652C9.97293 5.96517 9.25226 5.66666 8.50081 5.66666Z" fill="#545454"/>
</g>
</g>
</g>
</svg>
