<svg width="107" height="107" viewBox="0 0 107 107" fill="none" xmlns="http://www.w3.org/2000/svg">
<path d="M31.2395 53.5C31.2395 52.6131 31.5918 51.7626 32.2189 51.1356C32.8459 50.5085 33.6964 50.1562 34.5833 50.1562H50.1562V34.5833C50.1562 33.6964 50.5085 32.8459 51.1356 32.2189C51.7626 31.5918 52.6131 31.2395 53.5 31.2395C54.3868 31.2395 55.2373 31.5918 55.8643 32.2189C56.4914 32.8459 56.8437 33.6964 56.8437 34.5833V50.1562H72.4167C73.3035 50.1562 74.154 50.5085 74.7811 51.1356C75.4081 51.7626 75.7604 52.6131 75.7604 53.5C75.7604 54.3868 75.4081 55.2373 74.7811 55.8643C74.154 56.4914 73.3035 56.8437 72.4167 56.8437H56.8437V72.4167C56.8437 73.3035 56.4914 74.154 55.8643 74.7811C55.2373 75.4081 54.3868 75.7604 53.5 75.7604C52.6131 75.7604 51.7626 75.4081 51.1356 74.7811C50.5085 74.154 50.1562 73.3035 50.1562 72.4167V56.8437H34.5833C33.6964 56.8437 32.8459 56.4914 32.2189 55.8643C31.5918 55.2373 31.2395 54.3868 31.2395 53.5Z" fill="currentColor"/>
<path fill-rule="evenodd" clip-rule="evenodd" d="M32.6216 16.8034C46.498 15.2651 60.502 15.2651 74.3784 16.8034C82.5238 17.7129 89.0998 24.1284 90.0539 32.3184C91.7035 46.3933 91.7035 60.611 90.0539 74.6859C89.0953 82.8759 82.5193 89.287 74.3784 90.2009C60.502 91.7393 46.498 91.7393 32.6216 90.2009C24.4763 89.287 17.9002 82.8759 16.9461 74.6859C15.3 60.6114 15.3 46.3929 16.9461 32.3184C17.9002 24.1284 24.4807 17.7129 32.6216 16.8034ZM73.6383 23.4463C60.2538 21.9627 46.7463 21.9627 33.3617 23.4463C30.884 23.7212 28.5712 24.8234 26.7972 26.5748C25.0231 28.3262 23.8913 30.6246 23.5846 33.0986C21.999 46.6563 21.999 60.3525 23.5846 73.9102C23.8922 76.3834 25.0244 78.6807 26.7984 80.4313C28.5724 82.1818 30.8846 83.2833 33.3617 83.558C46.6342 85.0382 60.3658 85.0382 73.6383 83.558C76.1146 83.2824 78.4258 82.1804 80.1989 80.43C81.972 78.6795 83.1035 76.3827 83.411 73.9102C84.9966 60.3525 84.9966 46.6563 83.411 33.0986C83.1026 30.6269 81.9706 28.3311 80.1976 26.5815C78.4246 24.8319 76.1139 23.7306 73.6383 23.4552V23.4463Z" fill="currentColor"/>
</svg>
