<svg width="73" height="73" viewBox="0 0 73 73" fill="none" xmlns="http://www.w3.org/2000/svg">
<path d="M48.8674 27.3598C49.0854 27.1494 49.2593 26.8978 49.379 26.6195C49.4987 26.3413 49.5617 26.042 49.5645 25.7391C49.5673 25.4362 49.5097 25.1357 49.3951 24.8553C49.2806 24.5749 49.1113 24.3201 48.8972 24.1058C48.6831 23.8915 48.4285 23.722 48.1482 23.6072C47.8679 23.4924 47.5675 23.4345 47.2646 23.437C46.9617 23.4395 46.6623 23.5023 46.384 23.6217C46.1056 23.7411 45.8538 23.9148 45.6432 24.1326L36.5 33.2728L27.3598 24.1326C27.1509 23.9084 26.8991 23.7287 26.6193 23.604C26.3394 23.4793 26.0373 23.4123 25.731 23.4068C25.4247 23.4014 25.1205 23.4578 24.8364 23.5725C24.5524 23.6873 24.2943 23.858 24.0777 24.0747C23.8611 24.2913 23.6903 24.5493 23.5756 24.8334C23.4608 25.1174 23.4045 25.4217 23.4099 25.728C23.4153 26.0343 23.4823 26.3364 23.607 26.6162C23.7317 26.896 23.9115 27.1479 24.1356 27.3567L33.2697 36.5L24.1295 45.6402C23.7266 46.0726 23.5072 46.6446 23.5176 47.2356C23.5281 47.8266 23.7675 48.3905 24.1854 48.8085C24.6034 49.2264 25.1673 49.4658 25.7583 49.4763C26.3493 49.4867 26.9213 49.2673 27.3537 48.8644L36.5 39.7241L45.6402 48.8674C46.0726 49.2704 46.6446 49.4897 47.2356 49.4793C47.8266 49.4689 48.3905 49.2295 48.8085 48.8115C49.2264 48.3935 49.4658 47.8297 49.4763 47.2387C49.4867 46.6477 49.2673 46.0757 48.8644 45.6432L39.7302 36.5L48.8674 27.3598Z" fill="currentColor"/>
</svg>
