<svg width="47" height="38" viewBox="0 0 47 38" fill="none" xmlns="http://www.w3.org/2000/svg">
<path d="M33.605 0.0588379C29.61 0.0588379 26.085 1.57439 23.5 4.38901C20.915 1.57439 17.39 0.0588379 13.395 0.0588379C6.11 0.0588379 0 5.68805 0 12.3998C0 12.8328 0 13.2658 0 13.699C0.94 23.8746 12.69 32.3185 19.505 36.4323C20.68 37.0818 22.09 37.5148 23.5 37.5148C24.91 37.5148 26.32 37.0818 27.495 36.4323C34.31 32.3185 46.06 23.8746 47 13.9153C47 13.4824 47 13.0493 47 12.6163C47 5.68805 40.89 0.0588379 33.605 0.0588379ZM42.3 13.2658C41.595 21.9263 29.845 29.7204 24.91 32.5351C23.97 32.9681 23.03 32.9681 22.09 32.5351C17.155 29.5041 5.64 21.7097 4.7 13.0493C4.7 13.0493 4.7 12.6163 4.7 12.3998C4.7 8.06965 8.695 4.38901 13.395 4.38901C16.92 4.38901 19.975 6.33758 21.385 9.15219C21.62 10.0182 22.56 10.4512 23.5 10.4512C24.44 10.4512 25.38 10.0182 25.615 9.15219C27.025 6.33758 30.08 4.38901 33.605 4.38901C38.305 4.38901 42.3 8.06965 42.3 12.3998C42.3 12.6163 42.3 13.0493 42.3 13.2658Z" fill="currentColor"/>
</svg>
