<svg width="36" height="36" viewBox="0 0 36 36" fill="none" xmlns="http://www.w3.org/2000/svg">
<g id="mingcute:notification-fill" clip-path="url(#clip0_34_178)">
<g id="Group">
<path id="Vector" d="M22.4998 28.5C22.5 29.2569 22.2142 29.9858 21.6995 30.5408C21.1849 31.0958 20.4795 31.4357 19.7248 31.4925L19.4998 31.5H16.4998C15.7429 31.5002 15.0139 31.2144 14.459 30.6998C13.904 30.1851 13.564 29.4797 13.5073 28.725L13.4998 28.5H22.4998ZM17.9998 3C20.7222 2.99996 23.3383 4.05734 25.2961 5.94911C27.2539 7.84088 28.4004 10.4191 28.4938 13.14L28.4998 13.5V19.146L31.2328 24.612C31.352 24.8505 31.4117 25.1144 31.4067 25.381C31.4017 25.6476 31.3322 25.909 31.2041 26.1429C31.0759 26.3767 30.893 26.576 30.671 26.7238C30.449 26.8715 30.1945 26.9632 29.9293 26.991L29.7568 27H6.24277C5.97602 27.0001 5.71322 26.9355 5.4769 26.8117C5.24059 26.688 5.03779 26.5088 4.8859 26.2895C4.73401 26.0702 4.63754 25.8174 4.60478 25.5527C4.57201 25.2879 4.60392 25.0192 4.69777 24.7695L4.76677 24.612L7.49977 19.146V13.5C7.49977 10.7152 8.60602 8.04451 10.5752 6.07538C12.5443 4.10625 15.215 3 17.9998 3Z" fill="currentColor"/>
</g>
</g>
<defs>
<clipPath id="clip0_34_178">
<rect width="36" height="36" fill="white"/>
</clipPath>
</defs>
</svg>
